<svg width="39" height="39" viewBox="0 0 39 39" fill="none" xmlns="http://www.w3.org/2000/svg">
<g id="Group 56">
<circle id="Ellipse 3" cx="19.5" cy="19.5" r="19.5" fill="url(#paint0_linear_304_2322)"/>
<g id="Frame" clip-path="url(#clip0_304_2322)">
<path id="Vector" d="M20.9149 28.9726V32H17.997V29.2097C16.0274 29.1185 14.1125 28.5532 13 27.9514L13.8754 24.5046C15.0973 25.1793 16.848 25.7994 18.7629 25.7994C20.4772 25.7994 21.6079 25.1246 21.6079 23.9757C21.6079 22.8632 20.6596 22.152 18.4711 21.4043C15.3161 20.3647 13.1641 18.9058 13.1641 16.0426C13.1641 13.4164 14.9878 11.3921 18.1246 10.7903V8H21.0243V10.5897C22.9574 10.6444 24.2888 11.1003 25.3283 11.5562L24.4529 14.8936C23.6869 14.5289 22.3191 13.8359 20.2036 13.8359C18.2888 13.8359 17.6687 14.693 17.6687 15.5137C17.6687 16.462 18.69 17.1185 21.2432 18.0122C24.7264 19.2523 26.1307 20.8754 26.1307 23.5562C26.1307 26.1641 24.307 28.4255 20.9149 28.9726Z" fill="white"/>
</g>
</g>
<defs>
<linearGradient id="paint0_linear_304_2322" x1="19.5" y1="0" x2="19.5" y2="39" gradientUnits="userSpaceOnUse">
<stop stop-color="#FBC259"/>
<stop offset="1" stop-color="#F8A12E"/>
</linearGradient>
<clipPath id="clip0_304_2322">
<rect width="13.1307" height="24" fill="white" transform="translate(13 8)"/>
</clipPath>
</defs>
</svg>
