<svg width="39" height="39" viewBox="0 0 39 39" fill="none" xmlns="http://www.w3.org/2000/svg">
<g id="Group 57">
<circle id="Ellipse 3" cx="19.5" cy="19.5" r="19.5" fill="url(#paint0_linear_304_2323)"/>
<g id="&#230;&#143;&#144;&#231;&#142;&#176; 1">
<path id="Vector" d="M26.9938 24.575C25.5875 24.575 24.4813 23.3563 24.65 21.9125C24.8 20.7125 25.85 19.8313 27.0687 19.8313H31.8312V15.8188C31.8312 15.2938 31.4 14.8813 30.8937 14.8813H9.125C8.6 14.8813 8.1875 15.3125 8.1875 15.8188V28.0625C8.1875 28.5875 8.61875 29 9.125 29H30.875C31.4 29 31.8125 28.5688 31.8125 28.0625V24.575H26.9938ZM25.5312 14.0188L24.3875 10.4938C24.2375 10.0438 23.75 9.78129 23.2812 9.93129L10.25 14.15L25.5312 14.0188Z" fill="white"/>
<path id="Vector_2" d="M25.5312 22.2125C25.5313 22.67 25.713 23.1088 26.0365 23.4323C26.36 23.7558 26.7988 23.9375 27.2562 23.9375C27.7137 23.9375 28.1525 23.7558 28.476 23.4323C28.7995 23.1088 28.9813 22.67 28.9813 22.2125C28.9813 21.7551 28.7995 21.3163 28.476 20.9928C28.1525 20.6693 27.7137 20.4875 27.2562 20.4875C26.7988 20.4875 26.36 20.6693 26.0365 20.9928C25.713 21.3163 25.5312 21.7551 25.5312 22.2125Z" fill="white"/>
</g>
</g>
<defs>
<linearGradient id="paint0_linear_304_2323" x1="19.5" y1="0" x2="19.5" y2="39" gradientUnits="userSpaceOnUse">
<stop stop-color="#8DCCED"/>
<stop offset="1" stop-color="#2093F8"/>
</linearGradient>
</defs>
</svg>
